# xmcd
#
# Track frame offsets:
#	150
#	17318
#	44130
#	72453
#
# Disc length: 1356 seconds
#
# Revision: 1
# Processed by: cddbd v1.5.1PL0 Copyright (c) Steve Scherf et al.
# Submitted via: audiograbber 1.83.01
#
DISCID=31054a04
DTITLE=Zenith - We dance the night away
DYEAR=1900
DGENRE=Dance
TTITLE0=We dance the night away 7" Version (Radio Version)
TTITLE1=We dance the night away 12" Version Club Mix)
TTITLE2=We dance the night away Ravebase Clubmix (Remix Version)
TTITLE3=We dance the night away Ravebase No Speak Mix (Remix Instr. Version)
EXTD=
EXTT0=
EXTT1=
EXTT2=
EXTT3=
PLAYORDER=
